<svg width="38" height="38" xmlns="http://www.w3.org/2000/svg" xmlns:xlink="http://www.w3.org/1999/xlink" xml:space="preserve" overflow="hidden"><defs><clipPath id="clip0"><rect x="37" y="15" width="38" height="38"/></clipPath></defs><g clip-path="url(#clip0)" transform="translate(-37 -15)"><path d="M65.4478 27.9342C63.7992 26.5051 61.4378 26.2464 59.519 27.2847 58.5006 27.8029 57.5501 28.4449 56.6891 29.1962 55.339 30.4113 54.3861 32.0048 53.9543 33.7692 53.9079 33.9624 53.7256 34.0912 53.528 34.0705 53.5147 34.0694 53.5015 34.0674 53.4884 34.0645 53.3078 34.0277 53.1765 33.8712 53.1718 33.6869 53.0658 30.9322 54.3603 28.3107 56.612 26.7202 57.3399 26.1684 58.2319 25.8764 59.1453 25.891L59.4837 25.8961C60.8256 25.8993 63.241 25.6384 64.5504 24.4244 66.7156 22.4785 66.7041 18.9896 66.7041 18.9896 66.7041 18.9896 63.2014 18.6021 61.0758 20.5516 60.3664 21.2696 59.8039 22.1191 59.4196 23.0524 59.3008 21.695 58.9261 20.3723 58.3152 19.1543L58.2721 19.0597 56.1116 20.0461 56.1556 20.1415C56.7097 21.3571 57.1919 22.4195 57.1226 25.4635 56.3262 24.9382 55.43 24.3246 54.0786 24.3179 48.9692 24.2934 44.8007 27.3979 43.5435 33.5301 42.6703 37.7881 44.5545 42.0152 48.5389 45.5833 51.1043 47.8791 51.4681 48.5425 52.6006 48.7745 54.6011 49.0393 56.6344 48.8999 58.58 48.3644 63.1681 47.0312 67.4443 43.4671 68.4363 38.6344 69.3827 34.0139 68.1339 30.3235 65.4478 27.9342Z" fill="#E95E0D"/></g></svg>