<svg width="146" height="146" xmlns="http://www.w3.org/2000/svg" xmlns:xlink="http://www.w3.org/1999/xlink" xml:space="preserve" overflow="hidden"><defs><clipPath id="clip0"><rect x="39" y="38" width="146" height="146"/></clipPath><clipPath id="clip1"><rect x="58" y="60" width="103" height="102"/></clipPath><clipPath id="clip2"><rect x="58" y="60" width="103" height="102"/></clipPath><clipPath id="clip3"><rect x="58" y="60" width="103" height="102"/></clipPath></defs><g clip-path="url(#clip0)" transform="translate(-39 -38)"><path d="M38.9998 111C38.9998 70.6833 71.6831 38.0002 112 38.0002 152.317 38.0002 185 70.6833 185 111 185 151.317 152.317 184 112 184 71.6831 184 38.9998 151.317 38.9998 111Z" fill="#E95E0D" fill-rule="evenodd"/><g clip-path="url(#clip1)"><g clip-path="url(#clip2)"><g clip-path="url(#clip3)"><path d="M76.3596 34.7182C71.9345 30.882 65.5961 30.1876 60.4455 32.9746 57.7119 34.3655 55.1606 36.0889 52.8497 38.1054 49.2257 41.3672 46.6677 45.6445 45.5089 50.3804 45.3844 50.8989 44.8949 51.2448 44.3646 51.189 44.3289 51.186 44.2934 51.1807 44.2583 51.1731 43.7735 51.0742 43.4211 50.654 43.4083 50.1594 43.1238 42.7652 46.5985 35.7287 52.6425 31.4595 54.5965 29.9781 56.9908 29.1944 59.4425 29.2335L60.3509 29.2474C63.9528 29.2559 70.4361 28.5557 73.9509 25.297 79.7627 20.0738 79.7319 10.7089 79.7319 10.7089 79.7319 10.7089 70.3299 9.66873 64.6243 14.9015 62.7203 16.829 61.2103 19.1091 60.1788 21.6144 59.8599 17.9708 58.8542 14.4203 57.2144 11.1509L57.0986 10.897 51.2995 13.5447 51.4174 13.8008C52.9049 17.0637 54.1991 19.9154 54.0131 28.0861 51.8754 26.6761 49.4699 25.0292 45.8425 25.0112 32.1278 24.9453 20.9386 33.2785 17.5641 49.7387 15.2203 61.168 20.2778 72.5144 30.9729 82.0917 37.8589 88.2542 38.8353 90.035 41.8751 90.6576 47.2449 91.3685 52.7027 90.9942 57.9252 89.5568 70.2406 85.9783 81.7188 76.4116 84.3814 63.4396 86.9218 51.0371 83.5697 41.1314 76.3596 34.7182Z" fill="#FFFFFF" transform="matrix(1.0098 0 0 1 58.0001 60.0002)"/></g></g></g></g></svg>